<svg width="500" height="500" viewBox="0 0 500 500" fill="none" xmlns="http://www.w3.org/2000/svg">
<path d="M415.36 125.13C420.15 199.68 330.16 280.13 265.29 301.13C202.78 321.4 77.78 313.85 71.39 226C68.99 193 88.06 157 116.32 139.8C161.76 112.17 197.38 149.04 242.17 154.97C277.76 159.68 305.32 143.81 332.02 122.14C354.26 104.11 411.76 69.2 415.36 125.13Z" fill="#00A868"/>
<path opacity="0.8" d="M415.36 125.13C420.15 199.68 330.16 280.13 265.29 301.13C202.78 321.4 77.78 313.85 71.39 226C68.99 193 88.06 157 116.32 139.8C161.76 112.17 197.38 149.04 242.17 154.97C277.76 159.68 305.32 143.81 332.02 122.14C354.26 104.11 411.76 69.2 415.36 125.13Z" fill="white"/>
<path d="M250 427.56C357.082 427.56 443.89 422.492 443.89 416.24C443.89 409.988 357.082 404.92 250 404.92C142.917 404.92 56.11 409.988 56.11 416.24C56.11 422.492 142.917 427.56 250 427.56Z" fill="#F5F5F5"/>
<path d="M146.921 266.325C168.072 245.175 168.072 210.882 146.921 189.732C125.771 168.581 91.4785 168.581 70.3277 189.732C49.1769 210.882 49.1769 245.175 70.3277 266.325C91.4785 287.476 125.771 287.476 146.921 266.325Z" fill="#00A868"/>
<path opacity="0.4" d="M146.921 266.325C168.072 245.175 168.072 210.882 146.921 189.732C125.771 168.581 91.4785 168.581 70.3277 189.732C49.1769 210.882 49.1769 245.175 70.3277 266.325C91.4785 287.476 125.771 287.476 146.921 266.325Z" fill="black"/>
<path opacity="0.2" d="M153.461 235.676C157.685 210.916 141.037 187.42 116.276 183.196C91.516 178.973 68.02 195.621 63.7965 220.382C59.5731 245.142 76.2215 268.638 100.982 272.861C125.742 277.085 149.238 260.436 153.461 235.676Z" fill="black"/>
<path d="M155.635 232.384C157.323 208.272 139.144 187.356 115.031 185.668C90.9184 183.98 70.0029 202.159 68.315 226.272C66.6271 250.385 84.806 271.3 108.919 272.988C133.032 274.676 153.947 256.497 155.635 232.384Z" fill="#00A868"/>
<path opacity="0.4" d="M155.635 232.384C157.323 208.272 139.144 187.356 115.031 185.668C90.9184 183.98 70.0029 202.159 68.315 226.272C66.6271 250.385 84.806 271.3 108.919 272.988C133.032 274.676 153.947 256.497 155.635 232.384Z" fill="black"/>
<path d="M126.61 223.86L129.46 236.21C129.581 236.682 129.603 237.173 129.523 237.653C129.444 238.134 129.266 238.592 129 239C128.742 239.417 128.402 239.777 128.002 240.061C127.602 240.344 127.149 240.545 126.67 240.65L115.81 243.16L117.81 251.85C117.928 252.32 117.946 252.809 117.863 253.286C117.78 253.763 117.599 254.217 117.33 254.62C117.072 255.03 116.731 255.382 116.33 255.654C115.929 255.926 115.476 256.112 115 256.2C114.523 256.32 114.026 256.342 113.54 256.267C113.054 256.191 112.588 256.019 112.17 255.76C111.753 255.515 111.392 255.185 111.11 254.793C110.827 254.4 110.63 253.953 110.53 253.48L108.53 244.69L97.76 247.18C97.2958 247.292 96.8138 247.309 96.343 247.23C95.8721 247.151 95.4221 246.977 95.02 246.72C94.6021 246.475 94.2397 246.146 93.9557 245.753C93.6717 245.361 93.4722 244.914 93.37 244.44C93.2563 243.973 93.2384 243.487 93.3175 243.013C93.3965 242.539 93.5709 242.085 93.83 241.68C94.0772 241.266 94.4073 240.907 94.7997 240.627C95.192 240.346 95.6381 240.15 96.11 240.05L121.31 234.24L120.13 229.11L95 234.9C94.5348 235.019 94.0503 235.042 93.5759 234.968C93.1015 234.894 92.647 234.725 92.24 234.47C91.8226 234.219 91.462 233.885 91.1814 233.487C90.9007 233.089 90.7061 232.637 90.61 232.16L87.77 219.86C87.5514 218.915 87.7172 217.921 88.2311 217.098C88.7449 216.274 89.5646 215.689 90.51 215.47L101.23 213L99.23 204.3C99.114 203.84 99.0914 203.361 99.1636 202.892C99.2357 202.424 99.4011 201.974 99.65 201.57C99.9137 201.132 100.268 200.756 100.689 200.467C101.109 200.177 101.587 199.98 102.09 199.89C102.552 199.778 103.033 199.76 103.502 199.839C103.972 199.919 104.42 200.092 104.82 200.35C105.231 200.603 105.586 200.936 105.864 201.329C106.143 201.723 106.339 202.169 106.44 202.64L108.44 211.33L119.44 208.81C119.916 208.695 120.41 208.677 120.893 208.758C121.376 208.839 121.838 209.016 122.25 209.28C122.667 209.52 123.03 209.844 123.316 210.231C123.602 210.618 123.804 211.061 123.91 211.53C124.121 212.497 123.945 213.508 123.42 214.347C122.894 215.186 122.062 215.787 121.1 216.02L95.9 221.83L97 226.93L122.11 221.14C122.586 221.025 123.08 221.007 123.563 221.088C124.046 221.169 124.507 221.346 124.92 221.61C125.344 221.845 125.714 222.167 126.005 222.555C126.296 222.943 126.502 223.387 126.61 223.86Z" fill="#00A868"/>
<g opacity="0.7">
<path opacity="0.7" d="M126.61 223.86L129.46 236.21C129.581 236.682 129.603 237.173 129.523 237.653C129.444 238.134 129.266 238.592 129 239C128.742 239.417 128.402 239.777 128.002 240.061C127.602 240.344 127.149 240.545 126.67 240.65L115.81 243.16L117.81 251.85C117.928 252.32 117.946 252.809 117.863 253.286C117.78 253.763 117.599 254.217 117.33 254.62C117.072 255.03 116.731 255.382 116.33 255.654C115.929 255.926 115.476 256.112 115 256.2C114.523 256.32 114.026 256.342 113.54 256.267C113.054 256.191 112.588 256.019 112.17 255.76C111.753 255.515 111.392 255.185 111.11 254.793C110.827 254.4 110.63 253.953 110.53 253.48L108.53 244.69L97.76 247.18C97.2958 247.292 96.8138 247.309 96.343 247.23C95.8721 247.151 95.4221 246.977 95.02 246.72C94.6021 246.475 94.2397 246.146 93.9557 245.753C93.6717 245.361 93.4722 244.914 93.37 244.44C93.2563 243.973 93.2384 243.487 93.3175 243.013C93.3965 242.539 93.5709 242.085 93.83 241.68C94.0772 241.266 94.4073 240.907 94.7997 240.627C95.192 240.346 95.6381 240.15 96.11 240.05L121.31 234.24L120.13 229.11L95 234.9C94.5348 235.019 94.0503 235.042 93.5759 234.968C93.1015 234.894 92.647 234.725 92.24 234.47C91.8226 234.219 91.462 233.885 91.1814 233.487C90.9007 233.089 90.7061 232.637 90.61 232.16L87.77 219.86C87.5514 218.915 87.7172 217.921 88.2311 217.098C88.7449 216.274 89.5646 215.689 90.51 215.47L101.23 213L99.23 204.3C99.114 203.84 99.0914 203.361 99.1636 202.892C99.2357 202.424 99.4011 201.974 99.65 201.57C99.9137 201.132 100.268 200.756 100.689 200.467C101.109 200.177 101.587 199.98 102.09 199.89C102.552 199.778 103.033 199.76 103.502 199.839C103.972 199.919 104.42 200.092 104.82 200.35C105.231 200.603 105.586 200.936 105.864 201.329C106.143 201.723 106.339 202.169 106.44 202.64L108.44 211.33L119.44 208.81C119.916 208.695 120.41 208.677 120.893 208.758C121.376 208.839 121.838 209.016 122.25 209.28C122.667 209.52 123.03 209.844 123.316 210.231C123.602 210.618 123.804 211.061 123.91 211.53C124.121 212.497 123.945 213.508 123.42 214.347C122.894 215.186 122.062 215.787 121.1 216.02L95.9 221.83L97 226.93L122.11 221.14C122.586 221.025 123.08 221.007 123.563 221.088C124.046 221.169 124.507 221.346 124.92 221.61C125.344 221.845 125.714 222.167 126.005 222.555C126.296 222.943 126.502 223.387 126.61 223.86Z" fill="white"/>
</g>
<path d="M224.199 184.958C237.673 169.013 235.671 145.163 219.725 131.688C203.78 118.213 179.93 120.216 166.456 136.161C152.981 152.106 154.983 175.956 170.929 189.431C186.874 202.906 210.724 200.903 224.199 184.958Z" fill="#00A868"/>
<path opacity="0.4" d="M224.199 184.958C237.673 169.013 235.671 145.163 219.725 131.688C203.78 118.213 179.93 120.216 166.456 136.161C152.981 152.106 154.983 175.956 170.929 189.431C186.874 202.906 210.724 200.903 224.199 184.958Z" fill="black"/>
<path opacity="0.2" d="M219.793 180.754C230.962 167.244 229.063 147.237 215.553 136.068C202.042 124.899 182.035 126.797 170.866 140.308C159.697 153.818 161.595 173.825 175.106 184.994C188.617 196.163 208.624 194.265 219.793 180.754Z" fill="black"/>
<path d="M220.751 181.086C230.969 167.716 228.414 148.593 215.044 138.374C201.674 128.156 182.551 130.711 172.333 144.081C162.114 157.451 164.669 176.574 178.039 186.793C191.409 197.011 210.532 194.456 220.751 181.086Z" fill="#00A868"/>
<path opacity="0.4" d="M220.751 181.086C230.969 167.716 228.414 148.593 215.044 138.374C201.674 128.156 182.551 130.711 172.333 144.081C162.114 157.451 164.669 176.574 178.039 186.793C191.409 197.011 210.532 194.456 220.751 181.086Z" fill="black"/>
<path d="M207.82 163.66L205.67 172.24C205.592 172.566 205.447 172.873 205.244 173.14C205.04 173.406 204.784 173.628 204.49 173.79C204.193 173.97 203.863 174.089 203.52 174.139C203.176 174.189 202.826 174.169 202.49 174.08L195 172.19L193.48 178.19C193.403 178.518 193.258 178.826 193.055 179.095C192.851 179.363 192.594 179.586 192.3 179.75C192.016 179.926 191.7 180.043 191.37 180.092C191.04 180.142 190.703 180.124 190.38 180.04C190.047 179.962 189.734 179.818 189.457 179.617C189.181 179.416 188.947 179.162 188.77 178.87C188.59 178.585 188.47 178.265 188.418 177.931C188.366 177.597 188.384 177.257 188.47 176.93L190 170.83L182.5 169C182.175 168.922 181.869 168.779 181.601 168.58C181.333 168.381 181.108 168.129 180.94 167.84C180.759 167.557 180.639 167.239 180.588 166.906C180.536 166.574 180.554 166.235 180.64 165.91C180.715 165.581 180.856 165.271 181.056 164.999C181.255 164.728 181.509 164.5 181.8 164.33C182.088 164.155 182.408 164.039 182.741 163.991C183.075 163.943 183.415 163.963 183.74 164.05L201.24 168.44L202.14 164.88L184.69 160.5C184.363 160.427 184.055 160.287 183.785 160.089C183.515 159.891 183.288 159.64 183.12 159.35C182.939 159.065 182.82 158.744 182.772 158.41C182.724 158.076 182.747 157.735 182.84 157.41L184.98 148.86C185.061 148.534 185.205 148.227 185.405 147.958C185.605 147.688 185.856 147.46 186.144 147.288C186.432 147.116 186.752 147.003 187.084 146.955C187.416 146.908 187.755 146.926 188.08 147.01L195.5 148.87L197.02 142.87C197.094 142.531 197.236 142.212 197.44 141.931C197.643 141.65 197.902 141.414 198.201 141.239C198.499 141.063 198.831 140.951 199.175 140.91C199.519 140.869 199.868 140.9 200.2 141C200.522 141.075 200.826 141.215 201.091 141.413C201.356 141.611 201.577 141.862 201.74 142.15C201.917 142.435 202.034 142.753 202.084 143.085C202.134 143.417 202.115 143.755 202.03 144.08L200.51 150.08L208.11 151.99C208.443 152.07 208.757 152.216 209.032 152.421C209.307 152.625 209.538 152.884 209.71 153.18C209.892 153.461 210.015 153.776 210.07 154.107C210.125 154.437 210.111 154.775 210.03 155.1C209.947 155.433 209.797 155.746 209.591 156.021C209.385 156.296 209.126 156.527 208.83 156.7C208.535 156.884 208.205 157.005 207.861 157.057C207.517 157.108 207.166 157.089 206.83 157L189.32 152.61L188.44 156.15L205.88 160.52C206.213 160.6 206.527 160.746 206.802 160.951C207.077 161.155 207.308 161.414 207.48 161.71C207.673 161.992 207.803 162.312 207.861 162.648C207.92 162.985 207.906 163.33 207.82 163.66Z" fill="#00A868"/>
<g opacity="0.7">
<path opacity="0.7" d="M207.82 163.66L205.67 172.24C205.592 172.566 205.447 172.873 205.244 173.14C205.04 173.406 204.784 173.628 204.49 173.79C204.193 173.97 203.863 174.089 203.52 174.139C203.176 174.189 202.826 174.169 202.49 174.08L195 172.19L193.48 178.19C193.403 178.518 193.258 178.826 193.055 179.095C192.851 179.363 192.594 179.586 192.3 179.75C192.016 179.926 191.7 180.043 191.37 180.092C191.04 180.142 190.703 180.124 190.38 180.04C190.047 179.962 189.734 179.818 189.457 179.617C189.181 179.416 188.947 179.162 188.77 178.87C188.59 178.585 188.47 178.265 188.418 177.931C188.366 177.597 188.384 177.257 188.47 176.93L190 170.83L182.5 169C182.175 168.922 181.869 168.779 181.601 168.58C181.333 168.381 181.108 168.129 180.94 167.84C180.759 167.557 180.639 167.239 180.588 166.906C180.536 166.574 180.554 166.235 180.64 165.91C180.715 165.581 180.856 165.271 181.056 164.999C181.255 164.728 181.509 164.5 181.8 164.33C182.088 164.155 182.408 164.039 182.741 163.991C183.075 163.943 183.415 163.963 183.74 164.05L201.24 168.44L202.14 164.88L184.69 160.5C184.363 160.427 184.055 160.287 183.785 160.089C183.515 159.891 183.288 159.64 183.12 159.35C182.939 159.065 182.82 158.744 182.772 158.41C182.724 158.076 182.747 157.735 182.84 157.41L184.98 148.86C185.061 148.534 185.205 148.227 185.405 147.958C185.605 147.688 185.856 147.46 186.144 147.288C186.432 147.116 186.752 147.003 187.084 146.955C187.416 146.908 187.755 146.926 188.08 147.01L195.5 148.87L197.02 142.87C197.094 142.531 197.236 142.212 197.44 141.931C197.643 141.65 197.902 141.414 198.201 141.239C198.499 141.063 198.831 140.951 199.175 140.91C199.519 140.869 199.868 140.9 200.2 141C200.522 141.075 200.826 141.215 201.091 141.413C201.356 141.611 201.577 141.862 201.74 142.15C201.917 142.435 202.034 142.753 202.084 143.085C202.134 143.417 202.115 143.755 202.03 144.08L200.51 150.08L208.11 151.99C208.443 152.07 208.757 152.216 209.032 152.421C209.307 152.625 209.538 152.884 209.71 153.18C209.892 153.461 210.015 153.776 210.07 154.107C210.125 154.437 210.111 154.775 210.03 155.1C209.947 155.433 209.797 155.746 209.591 156.021C209.385 156.296 209.126 156.527 208.83 156.7C208.535 156.884 208.205 157.005 207.861 157.057C207.517 157.108 207.166 157.089 206.83 157L189.32 152.61L188.44 156.15L205.88 160.52C206.213 160.6 206.527 160.746 206.802 160.951C207.077 161.155 207.308 161.414 207.48 161.71C207.673 161.992 207.803 162.312 207.861 162.648C207.92 162.985 207.906 163.33 207.82 163.66Z" fill="white"/>
</g>
<path d="M103.26 388.97H102.26V400.26H103.26V388.97Z" fill="#00A868"/>
<path opacity="0.1" d="M103.26 388.97H102.26V400.26H103.26V388.97Z" fill="black"/>
<path d="M397.74 299.53H396.74V315H397.74V299.53Z" fill="#00A868"/>
<path d="M397.74 323.11H396.74V331.5H397.74V323.11Z" fill="#00A868"/>
<path opacity="0.1" d="M397.74 299.53H396.74V315H397.74V299.53Z" fill="black"/>
<path opacity="0.1" d="M397.74 323.11H396.74V331.5H397.74V323.11Z" fill="black"/>
<path d="M379.2 232.44H120.81C112.498 232.44 105.76 239.178 105.76 247.49V398.74C105.76 407.052 112.498 413.79 120.81 413.79H379.2C387.512 413.79 394.25 407.052 394.25 398.74V247.49C394.25 239.178 387.512 232.44 379.2 232.44Z" fill="#00A868"/>
<path opacity="0.2" d="M379.2 232.44H120.81C112.498 232.44 105.76 239.178 105.76 247.49V398.74C105.76 407.052 112.498 413.79 120.81 413.79H379.2C387.512 413.79 394.25 407.052 394.25 398.74V247.49C394.25 239.178 387.512 232.44 379.2 232.44Z" fill="black"/>
<path opacity="0.2" d="M347.55 295.59C357.861 295.59 366.22 287.231 366.22 276.92C366.22 266.609 357.861 258.25 347.55 258.25C337.239 258.25 328.88 266.609 328.88 276.92C328.88 287.231 337.239 295.59 347.55 295.59Z" fill="black"/>
<path d="M323.45 295.59C333.761 295.59 342.12 287.231 342.12 276.92C342.12 266.609 333.761 258.25 323.45 258.25C313.139 258.25 304.78 266.609 304.78 276.92C304.78 287.231 313.139 295.59 323.45 295.59Z" fill="#00A868"/>
<path d="M184.74 295.59H140.27C136.691 295.59 133.79 298.491 133.79 302.07V331.14C133.79 334.719 136.691 337.62 140.27 337.62H184.74C188.319 337.62 191.22 334.719 191.22 331.14V302.07C191.22 298.491 188.319 295.59 184.74 295.59Z" fill="#00A868"/>
<path opacity="0.3" d="M184.74 295.59H140.27C136.691 295.59 133.79 298.491 133.79 302.07V331.14C133.79 334.719 136.691 337.62 140.27 337.62H184.74C188.319 337.62 191.22 334.719 191.22 331.14V302.07C191.22 298.491 188.319 295.59 184.74 295.59Z" fill="white"/>
<path d="M215.51 253.67H138.38C135.845 253.67 133.79 255.723 133.79 258.255C133.79 260.787 135.845 262.84 138.38 262.84H215.51C218.045 262.84 220.1 260.787 220.1 258.255C220.1 255.723 218.045 253.67 215.51 253.67Z" fill="#00A868"/>
<path opacity="0.3" d="M215.51 253.67H138.38C135.845 253.67 133.79 255.723 133.79 258.255C133.79 260.787 135.845 262.84 138.38 262.84H215.51C218.045 262.84 220.1 260.787 220.1 258.255C220.1 255.723 218.045 253.67 215.51 253.67Z" fill="white"/>
<path d="M175.21 358.48H140.52C136.803 358.48 133.79 361.493 133.79 365.21V371.5C133.79 375.217 136.803 378.23 140.52 378.23H175.21C178.927 378.23 181.94 375.217 181.94 371.5V365.21C181.94 361.493 178.927 358.48 175.21 358.48Z" fill="#00A868"/>
<path opacity="0.3" d="M175.21 358.48H140.52C136.803 358.48 133.79 361.493 133.79 365.21V371.5C133.79 375.217 136.803 378.23 140.52 378.23H175.21C178.927 378.23 181.94 375.217 181.94 371.5V365.21C181.94 361.493 178.927 358.48 175.21 358.48Z" fill="white"/>
<path d="M236.63 358.48H201.94C198.223 358.48 195.21 361.493 195.21 365.21V371.5C195.21 375.217 198.223 378.23 201.94 378.23H236.63C240.347 378.23 243.36 375.217 243.36 371.5V365.21C243.36 361.493 240.347 358.48 236.63 358.48Z" fill="#00A868"/>
<path opacity="0.3" d="M236.63 358.48H201.94C198.223 358.48 195.21 361.493 195.21 365.21V371.5C195.21 375.217 198.223 378.23 201.94 378.23H236.63C240.347 378.23 243.36 375.217 243.36 371.5V365.21C243.36 361.493 240.347 358.48 236.63 358.48Z" fill="white"/>
<path d="M298.06 358.48H263.37C259.653 358.48 256.64 361.493 256.64 365.21V371.5C256.64 375.217 259.653 378.23 263.37 378.23H298.06C301.777 378.23 304.79 375.217 304.79 371.5V365.21C304.79 361.493 301.777 358.48 298.06 358.48Z" fill="#00A868"/>
<path opacity="0.3" d="M298.06 358.48H263.37C259.653 358.48 256.64 361.493 256.64 365.21V371.5C256.64 375.217 259.653 378.23 263.37 378.23H298.06C301.777 378.23 304.79 375.217 304.79 371.5V365.21C304.79 361.493 301.777 358.48 298.06 358.48Z" fill="white"/>
<path d="M359.48 358.48H324.79C321.073 358.48 318.06 361.493 318.06 365.21V371.5C318.06 375.217 321.073 378.23 324.79 378.23H359.48C363.197 378.23 366.21 375.217 366.21 371.5V365.21C366.21 361.493 363.197 358.48 359.48 358.48Z" fill="#00A868"/>
<path opacity="0.3" d="M359.48 358.48H324.79C321.073 358.48 318.06 361.493 318.06 365.21V371.5C318.06 375.217 321.073 378.23 324.79 378.23H359.48C363.197 378.23 366.21 375.217 366.21 371.5V365.21C366.21 361.493 363.197 358.48 359.48 358.48Z" fill="white"/>
<path d="M293 166.82C290.63 173.51 288 179.98 285.21 186.45C282.386 193.029 279.146 199.422 275.51 205.59C275.02 206.38 274.51 207.17 273.98 207.96L273.59 208.55L273.06 209.28C272.7 209.74 272.36 210.14 272.06 210.53C270.8 211.935 269.465 213.27 268.06 214.53C265.39 217 262.67 219.24 259.92 221.45C254.4 225.83 248.76 229.93 242.92 233.82L239.43 229.49L254.13 215C256.56 212.59 258.97 210.16 261.22 207.73C262.33 206.52 263.41 205.28 264.3 204.14C264.52 203.86 264.71 203.58 264.88 203.34L265.09 203L265.38 202.48C265.77 201.79 266.18 201.12 266.56 200.41C269.62 194.66 272.32 188.41 274.92 182.07C277.52 175.73 280.02 169.34 282.42 163L293 166.82Z" fill="#E4897B"/>
<path d="M295.81 162C298.08 168.64 284.74 188.17 284.74 188.17L272 181.08C274.171 174.986 276.736 169.04 279.68 163.28C284.14 154.84 293.32 154.71 295.81 162Z" fill="#00A868"/>
<path opacity="0.7" d="M295.81 162C298.08 168.64 284.74 188.17 284.74 188.17L272 181.08C274.171 174.986 276.736 169.04 279.68 163.28C284.14 154.84 293.32 154.71 295.81 162Z" fill="white"/>
<path opacity="0.31" d="M296 162.83C293.14 161.46 289.85 162.61 286.38 168.09C282.91 173.57 279.96 182.72 279.64 185.33L284.75 188.16C284.75 188.16 297.06 170.12 296 162.83Z" fill="#00A868"/>
<path d="M287.18 156.92C287.18 156.92 277.66 179.31 284.52 221H324.17C324.66 214.91 321.86 185.22 328.73 156.54C324.365 155.69 319.949 155.129 315.51 154.86C309.898 154.54 304.272 154.54 298.66 154.86C294.786 155.253 290.949 155.942 287.18 156.92Z" fill="#00A868"/>
<path opacity="0.7" d="M287.18 156.92C287.18 156.92 277.66 179.31 284.52 221H324.17C324.66 214.91 321.86 185.22 328.73 156.54C324.365 155.69 319.949 155.129 315.51 154.86C309.898 154.54 304.272 154.54 298.66 154.86C294.786 155.253 290.949 155.942 287.18 156.92Z" fill="white"/>
<path d="M338.21 398.63L332.34 403.89L321.15 392.24L327.03 386.98L338.21 398.63Z" fill="#E4897B"/>
<path d="M318.08 409.57H310.67L309.71 392.41H317.12L318.08 409.57Z" fill="#E4897B"/>
<path d="M321.16 392.24L326.92 398.25L332.8 392.98L327.04 386.98L321.16 392.24Z" fill="#CE6F64"/>
<path d="M317.12 392.41H309.71L310.21 401.26H317.62L317.12 392.41Z" fill="#CE6F64"/>
<path d="M284.52 221C284.52 221 276.71 275.06 274.05 304.48C271.91 328.09 322.96 398.48 322.96 398.48L332.83 389.19C332.83 389.19 295.55 326.08 298.42 299.8C301.2 274.35 310.62 220.97 310.62 220.97L284.52 221Z" fill="#00A868"/>
<path opacity="0.7" d="M284.52 221C284.52 221 276.71 275.06 274.05 304.48C271.91 328.09 322.96 398.48 322.96 398.48L332.83 389.19C332.83 389.19 295.55 326.08 298.42 299.8C301.2 274.35 310.62 220.97 310.62 220.97L284.52 221Z" fill="black"/>
<path opacity="0.2" d="M298.42 299.83C299.85 286.72 303.05 266.18 305.8 249.36C304.36 246.54 300.32 240.83 300.32 240.83C296.7 253.34 288.83 300.5 300.06 364.19C311.76 383.05 322.96 398.51 322.96 398.51L324.49 374.19C313.68 353.85 296.43 318 298.42 299.83Z" fill="black"/>
<path d="M298.62 221C298.62 221 297.92 277.65 299.12 298.88C300.43 322.12 307.03 399.13 307.03 399.13H320.61C320.61 399.13 320.2 324 321 301C321.89 276 324.19 221 324.19 221H298.62Z" fill="#00A868"/>
<path opacity="0.7" d="M298.62 221C298.62 221 297.92 277.65 299.12 298.88C300.43 322.12 307.03 399.13 307.03 399.13H320.61C320.61 399.13 320.2 324 321 301C321.89 276 324.19 221 324.19 221H298.62Z" fill="black"/>
<path d="M310.28 408.72H318.61C318.749 408.715 318.884 408.764 318.987 408.857C319.09 408.951 319.152 409.081 319.16 409.22L319.57 415.81C319.571 415.982 319.539 416.153 319.474 416.312C319.409 416.472 319.314 416.617 319.193 416.739C319.073 416.862 318.929 416.959 318.771 417.026C318.612 417.094 318.442 417.129 318.27 417.13C315.37 417.08 313.98 416.91 310.32 416.91C308.07 416.91 298.49 417.15 295.38 417.15C292.27 417.15 292.38 414.07 293.67 413.79C299.58 412.54 306.91 410.79 309.01 409.17C309.372 408.884 309.819 408.726 310.28 408.72Z" fill="#263238"/>
<path d="M330.72 401.78L337.86 396.97C337.977 396.878 338.121 396.827 338.27 396.827C338.419 396.827 338.563 396.878 338.68 396.97L344.14 402.48C344.247 402.601 344.325 402.744 344.37 402.899C344.415 403.054 344.426 403.217 344.401 403.376C344.376 403.535 344.317 403.687 344.227 403.821C344.137 403.955 344.018 404.067 343.88 404.15C339.32 407.66 336.03 410.31 333.43 413.23C330.43 416.64 328.81 417.13 321.81 417.13C318.57 417.13 316.74 414.4 318.06 413.98C329.72 410.29 326.6 408.68 329.44 403.27C329.736 402.675 330.176 402.163 330.72 401.78Z" fill="#263238"/>
<path d="M241.11 228.56L233.38 228.83L235 234.89C235 234.89 243.08 235.61 243.8 233.17L241.11 228.56Z" fill="#E4897B"/>
<path d="M225.04 232.44L230.46 235.6L235 234.89L233.38 228.83L225.04 232.44Z" fill="#E4897B"/>
<path opacity="0.31" d="M319.87 163.62C319.05 168.34 320.14 179.62 324.19 192.68C324.507 181.491 325.809 170.351 328.08 159.39V159.33C325.48 159.07 320.66 159.19 319.87 163.62Z" fill="#00A868"/>
<path d="M314.5 135.88C313.25 141.3 311.84 151.24 315.5 154.88C315.5 154.88 313.92 159.37 303.84 159.37C292.76 159.37 298.65 154.88 298.65 154.88C304.75 153.44 304.75 148.95 303.84 144.74L314.5 135.88Z" fill="#E4897B"/>
<path d="M303.56 159.35L300.56 162.54L302.03 165.62L304.42 165.73L306.46 162.79L303.56 159.35Z" fill="#00A868"/>
<path d="M310.16 139.49L303.85 144.71C304.077 145.696 304.218 146.7 304.27 147.71C306.59 147.38 309.85 144.84 310.18 142.42C310.357 141.451 310.35 140.457 310.16 139.49Z" fill="#CE6F64"/>
<path d="M301.35 117.5C297.56 118.79 294.53 128.84 298.95 131.5C303.37 134.16 308.55 115.05 301.35 117.5Z" fill="#263238"/>
<path d="M316.87 130.2C314.61 137.2 313.65 141.43 309.09 144.3C307.619 145.245 305.917 145.771 304.169 145.819C302.421 145.867 300.693 145.437 299.172 144.574C297.652 143.711 296.396 142.448 295.54 140.923C294.685 139.398 294.263 137.668 294.32 135.92C294.41 129.19 298.09 118.83 305.84 117.53C307.51 117.208 309.236 117.33 310.844 117.884C312.453 118.438 313.887 119.405 315.004 120.688C316.121 121.971 316.881 123.525 317.209 125.195C317.536 126.864 317.419 128.59 316.87 130.2Z" fill="#E4897B"/>
<path d="M322.47 118.5C320.21 123.96 325.47 119.4 324.11 125.88C323.23 130.1 315.61 140.21 312.67 139.29C309.73 138.37 309.76 131.2 313.51 126.13C315.67 123.22 311 119.92 300.51 120.27C290.02 120.62 283.68 114.72 297.62 110.39C297.62 110.39 292.48 113.39 295.53 114.39C299.85 116 327 107.56 322.47 118.5Z" fill="#263238"/>
<path d="M320.47 121C320.36 121 322.82 120.39 324.13 116C324.13 116.07 323.7 122.54 320.47 121Z" fill="#263238"/>
<path d="M300.84 111.36C294.39 113.36 297.06 115.61 299.73 116.17L305.85 113.77C296.55 115 300.84 111.36 300.84 111.36Z" fill="#263238"/>
<path d="M318.11 138.75C316.769 140.053 314.98 140.794 313.11 140.82C310.64 140.82 310.11 138.48 311.44 136.52C312.62 134.76 315.32 132.64 317.5 133.59C319.68 134.54 319.75 137.14 318.11 138.75Z" fill="#E4897B"/>
<path d="M305.48 129.81C305.33 130.39 304.9 130.81 304.48 130.71C304.06 130.61 303.91 130.08 304.06 129.5C304.21 128.92 304.64 128.5 305.06 128.61C305.48 128.72 305.63 129.23 305.48 129.81Z" fill="#263238"/>
<path d="M298.88 128.36C298.73 128.94 298.3 129.36 297.88 129.26C297.46 129.16 297.31 128.64 297.46 128.06C297.61 127.48 298.03 127.06 298.46 127.16C298.89 127.26 299 127.78 298.88 128.36Z" fill="#263238"/>
<path d="M300.9 129.11C299.763 130.729 298.418 132.192 296.9 133.46C297.234 133.831 297.645 134.125 298.105 134.32C298.564 134.515 299.061 134.607 299.56 134.59L300.9 129.11Z" fill="#DE5753"/>
<path d="M302 136.7C301.586 136.7 301.173 136.653 300.77 136.56C300.726 136.548 300.687 136.52 300.663 136.481C300.639 136.442 300.631 136.395 300.64 136.35C300.652 136.306 300.68 136.267 300.719 136.243C300.758 136.219 300.805 136.211 300.85 136.22C301.586 136.384 302.35 136.379 303.085 136.206C303.819 136.033 304.504 135.696 305.09 135.22C305.124 135.188 305.168 135.17 305.215 135.17C305.262 135.17 305.306 135.188 305.34 135.22C305.372 135.254 305.39 135.298 305.39 135.345C305.39 135.392 305.372 135.436 305.34 135.47C304.411 136.269 303.225 136.706 302 136.7Z" fill="#263238"/>
<path d="M308.1 128.14C308.032 128.141 307.965 128.122 307.908 128.084C307.851 128.047 307.806 127.993 307.78 127.93C307.616 127.529 307.357 127.173 307.027 126.893C306.696 126.613 306.303 126.416 305.88 126.32C305.834 126.314 305.789 126.299 305.749 126.275C305.709 126.252 305.674 126.22 305.646 126.183C305.618 126.146 305.598 126.103 305.586 126.058C305.575 126.013 305.573 125.966 305.58 125.92C305.595 125.828 305.645 125.745 305.719 125.689C305.794 125.633 305.887 125.608 305.98 125.62C306.519 125.73 307.022 125.969 307.448 126.318C307.873 126.666 308.207 127.113 308.42 127.62C308.44 127.662 308.451 127.707 308.452 127.753C308.454 127.8 308.446 127.846 308.429 127.889C308.412 127.932 308.387 127.971 308.354 128.004C308.322 128.037 308.283 128.063 308.24 128.08C308.198 128.11 308.15 128.131 308.1 128.14Z" fill="#263238"/>
<path d="M296.65 125.49C296.57 125.489 296.492 125.461 296.43 125.41C296.358 125.35 296.313 125.264 296.303 125.17C296.294 125.077 296.321 124.983 296.38 124.91C296.732 124.472 297.181 124.12 297.69 123.883C298.2 123.645 298.758 123.528 299.32 123.54C299.366 123.544 299.411 123.557 299.452 123.578C299.493 123.599 299.529 123.628 299.559 123.663C299.589 123.699 299.611 123.74 299.625 123.784C299.639 123.828 299.644 123.874 299.64 123.92C299.638 123.967 299.626 124.012 299.605 124.054C299.584 124.095 299.555 124.132 299.519 124.162C299.484 124.192 299.442 124.215 299.398 124.228C299.353 124.242 299.306 124.246 299.26 124.24C298.81 124.235 298.365 124.334 297.96 124.528C297.554 124.722 297.198 125.007 296.92 125.36C296.888 125.401 296.847 125.434 296.8 125.456C296.753 125.479 296.702 125.49 296.65 125.49Z" fill="#263238"/>
<path d="M330.65 161.65C331.43 162.86 332.08 163.93 332.74 165.09C333.4 166.25 334.03 167.37 334.65 168.53C335.87 170.84 337.02 173.2 338.07 175.61C340.272 180.544 341.926 185.705 343 191L343.1 191.51L343.15 191.76L343.22 192.18C343.305 192.739 343.348 193.304 343.35 193.87C343.34 194.817 343.24 195.762 343.05 196.69C342.711 198.221 342.222 199.715 341.59 201.15C340.467 203.664 339.129 206.077 337.59 208.36C334.681 212.702 331.373 216.763 327.71 220.49L323.36 217C325.78 212.78 328.19 208.4 330.21 204.11C331.203 202.058 332.052 199.94 332.75 197.77C333.035 196.865 333.23 195.934 333.33 194.99C333.365 194.681 333.365 194.369 333.33 194.06C333.33 193.97 333.33 193.89 333.27 193.88C333.21 193.87 333.27 193.88 333.27 193.83L333.21 193.63L333.09 193.22C332.458 191.014 331.707 188.844 330.84 186.72C329.96 184.55 328.98 182.39 327.95 180.24C326.92 178.09 325.81 175.97 324.67 173.85C324.11 172.79 323.52 171.74 322.93 170.7L321.17 167.7L330.65 161.65Z" fill="#E4897B"/>
<path d="M307.66 410C307.161 410.05 306.661 409.911 306.26 409.61C306.147 409.485 306.068 409.333 306.029 409.168C305.991 409.004 305.994 408.833 306.04 408.67C306.062 408.561 306.111 408.459 306.183 408.373C306.254 408.287 306.346 408.221 306.45 408.18C307.36 407.82 309.45 409.26 309.69 409.42C309.72 409.438 309.743 409.466 309.755 409.498C309.768 409.531 309.77 409.566 309.76 409.6C309.755 409.634 309.74 409.665 309.717 409.69C309.693 409.715 309.663 409.732 309.63 409.74C308.984 409.895 308.324 409.982 307.66 410ZM306.79 408.47C306.72 408.459 306.65 408.459 306.58 408.47C306.529 408.488 306.484 408.52 306.451 408.563C306.417 408.605 306.396 408.656 306.39 408.71C306.354 408.815 306.346 408.927 306.367 409.036C306.388 409.145 306.437 409.246 306.51 409.33C306.85 409.67 307.82 409.71 309.15 409.45C308.443 408.96 307.638 408.629 306.79 408.48V408.47Z" fill="white"/>
<path d="M309.59 409.75H309.5C308.76 409.31 307.66 407.75 307.83 406.95C307.859 406.803 307.938 406.671 308.052 406.575C308.167 406.478 308.31 406.424 308.46 406.42C308.592 406.403 308.726 406.416 308.852 406.457C308.979 406.499 309.094 406.568 309.19 406.66C309.94 407.39 309.77 409.52 309.77 409.61C309.766 409.64 309.755 409.668 309.738 409.693C309.72 409.717 309.697 409.737 309.67 409.75H309.59ZM308.59 406.75H308.51C308.26 406.75 308.2 406.9 308.18 407C308.07 407.53 308.8 408.7 309.44 409.24C309.532 408.429 309.364 407.609 308.96 406.9C308.91 406.851 308.85 406.813 308.785 406.787C308.72 406.761 308.65 406.749 308.58 406.75H308.59Z" fill="white"/>
<path d="M325.92 405.8C325.735 405.806 325.551 405.771 325.38 405.7C325.248 405.647 325.131 405.563 325.039 405.455C324.947 405.347 324.882 405.218 324.85 405.08C324.825 404.996 324.821 404.906 324.841 404.821C324.86 404.735 324.901 404.655 324.96 404.59C325.63 403.78 329.14 404.02 329.54 404.05C329.577 404.051 329.613 404.065 329.642 404.088C329.671 404.111 329.691 404.144 329.7 404.18C329.708 404.216 329.704 404.254 329.69 404.288C329.676 404.322 329.651 404.35 329.62 404.37C328.503 405.106 327.242 405.594 325.92 405.8ZM328.04 404.34C326.81 404.34 325.52 404.46 325.23 404.81C325.213 404.837 325.204 404.868 325.204 404.9C325.204 404.932 325.213 404.963 325.23 404.99C325.247 405.076 325.285 405.157 325.341 405.226C325.397 405.294 325.468 405.347 325.55 405.38C326.11 405.61 327.37 405.23 328.96 404.38L328.04 404.34Z" fill="white"/>
<path d="M329.53 404.4C328.53 404.4 326.28 403.63 326.11 402.83C326.11 402.63 326.11 402.35 326.59 402.12C328.31 401.31 329.64 404.03 329.7 404.12C329.712 404.148 329.718 404.179 329.718 404.21C329.718 404.241 329.712 404.272 329.7 404.3C329.684 404.331 329.659 404.356 329.629 404.374C329.599 404.391 329.565 404.4 329.53 404.4ZM327.22 402.33C327.05 402.328 326.883 402.366 326.73 402.44C326.52 402.54 326.42 402.65 326.44 402.75C326.54 403.22 328.16 403.88 329.22 404.02C328.9 403.48 328.13 402.33 327.22 402.33Z" fill="white"/>
<path d="M325.34 215.38L318 214.09L321.79 222.64C321.79 222.64 328.52 222.64 328.22 219.12L325.34 215.38Z" fill="#E4897B"/>
<path d="M312.45 218.39L315.92 225.29L321.75 222.64L317.96 214.09L312.45 218.39Z" fill="#E4897B"/>
<path d="M333.43 388.66L322.36 399.08L318.79 395.25L331.46 383.71L333.43 388.66Z" fill="#00A868"/>
<path opacity="0.6" d="M333.43 388.66L322.36 399.08L318.79 395.25L331.46 383.71L333.43 388.66Z" fill="white"/>
<path d="M321.15 399.13H306.48L305.67 393.97L321.86 394.78L321.15 399.13Z" fill="#00A868"/>
<path opacity="0.6" d="M321.15 399.13H306.48L305.67 393.97L321.86 394.78L321.15 399.13Z" fill="white"/>
<path d="M328.73 156.54C335.73 157.54 342.9 181.86 342.9 181.86L327.9 190.18C327.9 190.18 321.81 178.62 318.9 170.04C315.85 161.05 321.24 155.44 328.73 156.54Z" fill="#00A868"/>
<path opacity="0.7" d="M328.73 156.54C335.73 157.54 342.9 181.86 342.9 181.86L327.9 190.18C327.9 190.18 321.81 178.62 318.9 170.04C315.85 161.05 321.24 155.44 328.73 156.54Z" fill="white"/>
<path opacity="0.2" d="M303.56 159.35L300.56 162.54L302.03 165.62L304.42 165.73L306.46 162.79L303.56 159.35Z" fill="black"/>
<path d="M302.29 165.07C302.29 165.07 296.6 188.64 296.38 193.54C296.07 200.28 298.89 211.79 298.89 211.79C298.89 211.79 302.89 202.22 303.71 193.33C304.53 184.44 303.92 170.06 304.29 165.07H302.29Z" fill="#00A868"/>
<path opacity="0.2" d="M302.29 165.07C302.29 165.07 296.6 188.64 296.38 193.54C296.07 200.28 298.89 211.79 298.89 211.79C298.89 211.79 302.89 202.22 303.71 193.33C304.53 184.44 303.92 170.06 304.29 165.07H302.29Z" fill="black"/>
<path d="M303.56 159.35C304.7 161.195 305.36 163.295 305.48 165.46C305.48 165.46 317.96 161.06 317.37 154.61C317.37 154.61 315.6 153.56 314.48 152.71C314.48 152.71 314.06 156.77 303.56 159.35Z" fill="#00A868"/>
<path opacity="0.6" d="M303.56 159.35C304.7 161.195 305.36 163.295 305.48 165.46C305.48 165.46 317.96 161.06 317.37 154.61C317.37 154.61 315.6 153.56 314.48 152.71C314.48 152.71 314.06 156.77 303.56 159.35Z" fill="white"/>
<path d="M303.56 159.35C302.413 161.096 301.587 163.033 301.12 165.07C301.12 165.07 295.47 161.25 297.17 154.88C298.205 154.463 299.272 154.128 300.36 153.88C300.36 153.88 299.62 158 303.56 159.35Z" fill="#00A868"/>
<path opacity="0.6" d="M303.56 159.35C302.413 161.096 301.587 163.033 301.12 165.07C301.12 165.07 295.47 161.25 297.17 154.88C298.205 154.463 299.272 154.128 300.36 153.88C300.36 153.88 299.62 158 303.56 159.35Z" fill="white"/>
</svg>
