<svg width="500" height="500" viewBox="0 0 500 500" fill="none" xmlns="http://www.w3.org/2000/svg">
<g opacity="0.9">
<path opacity="0.9" d="M61.32 245.6C26.75 156.6 138.69 105.03 203.32 114.78C228.99 118.66 239.32 126.78 264.67 117.14C283.1 110.14 292.45 88.56 312.8 83.77C357.43 73.27 404.59 114.56 415.36 152.39C426.54 191.63 415.81 232.27 380.85 246.57C355.27 257.04 329.14 243.69 314.18 250.15C283.41 263.42 284.8 284.38 266.65 306.73C200 388.77 92.73 326.41 61.32 245.6Z" fill="#00A868"/>
</g>
<g opacity="0.9">
<path opacity="0.9" d="M61.32 245.6C26.75 156.6 138.69 105.03 203.32 114.78C228.99 118.66 239.32 126.78 264.67 117.14C283.1 110.14 292.45 88.56 312.8 83.77C357.43 73.27 404.59 114.56 415.36 152.39C426.54 191.63 415.81 232.27 380.85 246.57C355.27 257.04 329.14 243.69 314.18 250.15C283.41 263.42 284.8 284.38 266.65 306.73C200 388.77 92.73 326.41 61.32 245.6Z" fill="white"/>
</g>
<path d="M245.35 452.37C333.401 452.37 404.78 446.791 404.78 439.91C404.78 433.029 333.401 427.45 245.35 427.45C157.299 427.45 85.92 433.029 85.92 439.91C85.92 446.791 157.299 452.37 245.35 452.37Z" fill="#F5F5F5"/>
<path d="M396.91 161.59L375.6 228.07C375.357 228.832 374.92 229.518 374.332 230.061C373.744 230.604 373.025 230.984 372.246 231.166C371.467 231.347 370.654 231.323 369.887 231.096C369.12 230.869 368.425 230.446 367.87 229.87L356.79 218.4C355.953 217.538 354.814 217.034 353.612 216.995C352.411 216.956 351.242 217.384 350.35 218.19L257.82 302.19C256.994 302.939 255.924 303.365 254.809 303.389C253.694 303.413 252.608 303.033 251.75 302.32L193 253.47C192.151 252.772 191.081 252.398 189.982 252.416C188.882 252.435 187.825 252.844 187 253.57L71.59 355.85L75.97 314.85C76.0824 313.693 76.6291 312.621 77.5 311.85L186.41 215.33C187.237 214.607 188.295 214.201 189.393 214.185C190.492 214.168 191.561 214.542 192.41 215.24L250.92 264C251.778 264.713 252.864 265.093 253.979 265.069C255.094 265.045 256.164 264.619 256.99 263.87L329.99 197.56C330.449 197.143 330.82 196.639 331.08 196.076C331.34 195.513 331.484 194.904 331.503 194.285C331.523 193.665 331.417 193.048 331.194 192.47C330.97 191.892 330.632 191.365 330.2 190.92L319.3 179.58C318.73 178.991 318.327 178.261 318.131 177.466C317.935 176.67 317.954 175.836 318.186 175.05C318.418 174.264 318.854 173.554 319.451 172.991C320.047 172.429 320.782 172.035 321.58 171.85L391.46 155.67C392.257 155.483 393.089 155.512 393.872 155.752C394.654 155.993 395.359 156.437 395.913 157.039C396.468 157.641 396.852 158.38 397.027 159.18C397.202 159.979 397.162 160.811 396.91 161.59Z" fill="#00A868"/>
<path opacity="0.1" d="M396.88 161.7L375.64 228C375.39 228.772 374.945 229.466 374.347 230.015C373.75 230.563 373.02 230.948 372.23 231.131C371.44 231.314 370.615 231.29 369.837 231.06C369.059 230.83 368.354 230.403 367.79 229.82L356.79 218.48C355.941 217.603 354.784 217.09 353.564 217.049C352.344 217.008 351.156 217.442 350.25 218.26L257.82 302.19C256.908 303.023 255.704 303.461 254.47 303.41C253.435 303.377 252.442 302.996 251.65 302.33L193.03 253.54C192.164 252.829 191.074 252.448 189.953 252.465C188.833 252.481 187.755 252.894 186.91 253.63L71.59 355.85L76.16 313.12L186.37 215.45C187.213 214.71 188.292 214.295 189.413 214.279C190.535 214.262 191.626 214.645 192.49 215.36L217.4 236.09L250.87 264C251.742 264.72 252.844 265.103 253.974 265.079C255.105 265.055 256.189 264.626 257.03 263.87L330 197.6C330.468 197.178 330.845 196.667 331.111 196.096C331.376 195.525 331.523 194.906 331.544 194.277C331.564 193.648 331.458 193.021 331.23 192.433C331.003 191.846 330.659 191.311 330.22 190.86L319.41 179.67C318.833 179.072 318.425 178.331 318.228 177.524C318.031 176.716 318.051 175.871 318.287 175.074C318.523 174.277 318.966 173.557 319.57 172.987C320.175 172.417 320.92 172.018 321.73 171.83L391.37 155.69C392.177 155.509 393.018 155.543 393.807 155.791C394.596 156.038 395.306 156.49 395.865 157.099C396.424 157.709 396.813 158.456 396.991 159.263C397.169 160.071 397.131 160.912 396.88 161.7V161.7Z" fill="black"/>
<path d="M276.31 411.04H191V430.4H276.31V411.04Z" fill="#00A868"/>
<path opacity="0.2" d="M201.8 411.04H199.49V430.4H201.8V411.04Z" fill="black"/>
<path opacity="0.2" d="M213.67 411.04H211.36V430.4H213.67V411.04Z" fill="black"/>
<path opacity="0.2" d="M225.53 430.4H223.22V411.04L225.53 411.38V430.4Z" fill="black"/>
<path opacity="0.2" d="M237.4 411.04H235.09V430.4H237.4V411.04Z" fill="black"/>
<path opacity="0.2" d="M249.27 411.04H246.96V430.4H249.27V411.04Z" fill="black"/>
<path opacity="0.2" d="M261.13 411.04H258.82V430.4H261.13V411.04Z" fill="black"/>
<path opacity="0.2" d="M273 411.04H270.69V430.4H273V411.04Z" fill="black"/>
<path opacity="0.09" d="M276.31 411.04H191V415.03H276.31V411.04Z" fill="black"/>
<path d="M289.61 391.67H204.3V411.03H289.61V391.67Z" fill="#00A868"/>
<path opacity="0.2" d="M215.1 391.67H212.79V411.03H215.1V391.67Z" fill="black"/>
<path opacity="0.2" d="M226.97 391.67H224.66V411.03H226.97V391.67Z" fill="black"/>
<path opacity="0.2" d="M238.84 391.67H236.53V411.03H238.84V391.67Z" fill="black"/>
<path opacity="0.2" d="M250.7 391.67H248.39V411.03H250.7V391.67Z" fill="black"/>
<path opacity="0.2" d="M262.57 391.67H260.26V411.03H262.57V391.67Z" fill="black"/>
<path opacity="0.2" d="M274.43 391.67H272.12V411.03H274.43V391.67Z" fill="black"/>
<path opacity="0.2" d="M286.3 391.67H283.99V411.03H286.3V391.67Z" fill="black"/>
<path opacity="0.09" d="M289.61 391.67H204.3V395.66H289.61V391.67Z" fill="black"/>
<path d="M277.75 372.31H192.44V391.67H277.75V372.31Z" fill="#00A868"/>
<path opacity="0.2" d="M203.24 372.31H200.93V391.67H203.24V372.31Z" fill="black"/>
<path opacity="0.2" d="M215.1 391.68H212.79V372.33L215.1 372.31V391.68Z" fill="black"/>
<path opacity="0.2" d="M226.97 372.31H224.66V391.67H226.97V372.31Z" fill="black"/>
<path opacity="0.2" d="M238.84 372.31H236.53V391.67H238.84V372.31Z" fill="black"/>
<path opacity="0.2" d="M250.7 391.68H248.39V372.31L250.7 372.33V391.68Z" fill="black"/>
<path opacity="0.2" d="M262.57 372.31H260.26V391.67H262.57V372.31Z" fill="black"/>
<path opacity="0.2" d="M274.43 372.31H272.12V391.67H274.43V372.31Z" fill="black"/>
<path opacity="0.09" d="M277.75 372.31H192.44V377.08H277.75V372.31Z" fill="black"/>
<path d="M289.61 352.96H204.3V372.32H289.61V352.96Z" fill="#00A868"/>
<path opacity="0.2" d="M215.1 352.96H212.79V372.32H215.1V352.96Z" fill="black"/>
<path opacity="0.2" d="M226.97 352.96H224.66V372.32H226.97V352.96Z" fill="black"/>
<path opacity="0.2" d="M238.84 352.96H236.53V372.32H238.84V352.96Z" fill="black"/>
<path opacity="0.2" d="M250.7 352.96H248.39V372.32H250.7V352.96Z" fill="black"/>
<path opacity="0.2" d="M262.57 352.96H260.26V372.32H262.57V352.96Z" fill="black"/>
<path opacity="0.2" d="M274.43 372.31L272.12 372.33V352.96L274.43 353.31V372.31Z" fill="black"/>
<path opacity="0.2" d="M286.3 352.96H283.99V372.32H286.3V352.96Z" fill="black"/>
<path opacity="0.09" d="M289.61 352.96H204.3V356.95H289.61V352.96Z" fill="black"/>
<path d="M293.36 333.6H208.05V352.96H293.36V333.6Z" fill="#00A868"/>
<path opacity="0.2" d="M218.85 333.6H216.54V352.96H218.85V333.6Z" fill="black"/>
<path opacity="0.2" d="M230.71 333.6H228.4V352.96H230.71V333.6Z" fill="black"/>
<path opacity="0.2" d="M242.58 333.6H240.27V352.96H242.58V333.6Z" fill="black"/>
<path opacity="0.2" d="M254.45 333.6H252.14V352.96H254.45V333.6Z" fill="black"/>
<path opacity="0.2" d="M266.31 333.6H264V352.96H266.31V333.6Z" fill="black"/>
<path opacity="0.2" d="M278.18 333.6H275.87V352.96H278.18V333.6Z" fill="black"/>
<path opacity="0.2" d="M290.04 333.6H287.73V352.96H290.04V333.6Z" fill="black"/>
<path opacity="0.09" d="M293.36 333.6H208.05V337.59H293.36V333.6Z" fill="black"/>
<path d="M283.21 314.24H197.9V333.6H283.21V314.24Z" fill="#00A868"/>
<path opacity="0.2" d="M208.7 314.24H206.39V333.6H208.7V314.24Z" fill="black"/>
<path opacity="0.2" d="M220.57 314.24H218.26V333.6H220.57V314.24Z" fill="black"/>
<path opacity="0.2" d="M232.43 314.24H230.12V333.6H232.43V314.24Z" fill="black"/>
<path opacity="0.2" d="M244.3 314.24H241.99V333.6H244.3V314.24Z" fill="black"/>
<path opacity="0.2" d="M256.16 314.24H253.85V333.6H256.16V314.24Z" fill="black"/>
<path opacity="0.2" d="M268.03 314.24H265.72V333.6H268.03V314.24Z" fill="black"/>
<path opacity="0.2" d="M279.9 314.24H277.59V333.6H279.9V314.24Z" fill="black"/>
<path opacity="0.09" d="M283.21 314.24H197.9V318.23H283.21V314.24Z" fill="black"/>
<path d="M169.64 411.33H84.33V430.69H169.64V411.33Z" fill="#00A868"/>
<path opacity="0.2" d="M95.1299 411.33H92.8199V430.69H95.1299V411.33Z" fill="black"/>
<path opacity="0.2" d="M107 411.33H104.69V430.69H107V411.33Z" fill="black"/>
<path opacity="0.2" d="M118.87 411.33H116.56V430.69H118.87V411.33Z" fill="black"/>
<path opacity="0.2" d="M130.73 411.33H128.42V430.69H130.73V411.33Z" fill="black"/>
<path opacity="0.2" d="M142.6 411.33H140.29V430.69H142.6V411.33Z" fill="black"/>
<path opacity="0.2" d="M154.46 411.33H152.15V430.69H154.46V411.33Z" fill="black"/>
<path opacity="0.2" d="M166.33 411.33H164.02V430.69H166.33V411.33Z" fill="black"/>
<path opacity="0.09" d="M169.64 411.33H84.33V415.32H169.64V411.33Z" fill="black"/>
<path d="M173.67 391.97H88.36V411.33H173.67V391.97Z" fill="#00A868"/>
<path opacity="0.2" d="M99.16 391.97H96.85V411.33H99.16V391.97Z" fill="black"/>
<path opacity="0.2" d="M111.03 391.97H108.72V411.33H111.03V391.97Z" fill="black"/>
<path opacity="0.2" d="M122.89 391.97H120.58V411.33H122.89V391.97Z" fill="black"/>
<path opacity="0.2" d="M134.76 391.97H132.45V411.33H134.76V391.97Z" fill="black"/>
<path opacity="0.2" d="M146.62 391.97H144.31V411.33H146.62V391.97Z" fill="black"/>
<path opacity="0.2" d="M158.49 391.97H156.18V411.33H158.49V391.97Z" fill="black"/>
<path opacity="0.2" d="M170.36 391.97H168.05V411.33H170.36V391.97Z" fill="black"/>
<path opacity="0.09" d="M173.67 391.97H88.36V395.62H173.67V391.97Z" fill="black"/>
<path d="M168.44 372.6H83.1299V391.96H168.44V372.6Z" fill="#00A868"/>
<path opacity="0.2" d="M93.93 372.6H91.62V391.96H93.93V372.6Z" fill="black"/>
<path opacity="0.2" d="M105.8 372.6H103.49V391.96H105.8V372.6Z" fill="black"/>
<path opacity="0.2" d="M117.66 372.6H115.35V391.96H117.66V372.6Z" fill="black"/>
<path opacity="0.2" d="M129.53 372.6H127.22V391.96H129.53V372.6Z" fill="black"/>
<path opacity="0.2" d="M141.4 372.6H139.09V391.96H141.4V372.6Z" fill="black"/>
<path opacity="0.2" d="M153.26 372.6H150.95V391.96H153.26V372.6Z" fill="black"/>
<path opacity="0.2" d="M165.13 372.6H162.82V391.96H165.13V372.6Z" fill="black"/>
<path opacity="0.09" d="M168.44 372.6H83.1299V376.25H168.44V372.6Z" fill="black"/>
<path d="M355.84 362.89H337.15V431.21H355.84V362.89Z" fill="#00A868"/>
<g opacity="0.4">
<path opacity="0.4" d="M355.84 381.07V394.96L337.15 413.65V398.71L355.84 381.07Z" fill="white"/>
<path opacity="0.4" d="M355.84 370.91V373.27L337.15 391.97V389.61L355.84 370.91Z" fill="white"/>
</g>
<path d="M378.85 384.9H360.16V431.21H378.85V384.9Z" fill="#00A868"/>
<g opacity="0.4">
<path opacity="0.4" d="M378.85 398.55V412.3L360.16 430.98V416.2L378.85 398.55Z" fill="white"/>
<path opacity="0.4" d="M378.85 392.07V394.71L360.16 413.41V410.75L378.85 392.07Z" fill="white"/>
</g>
<path d="M332.82 330.06H314.13V431.21H332.82V330.06Z" fill="#00A868"/>
<g opacity="0.4">
<path opacity="0.4" d="M332.83 349.05V362.87L314.13 381.56V366.7L332.83 349.05Z" fill="white"/>
<path opacity="0.4" d="M332.83 341.45V344.03L314.13 362.74V360.14L332.83 341.45Z" fill="white"/>
</g>
<path d="M325.75 338.52C325.469 338.97 325.061 339.326 324.578 339.544C324.094 339.762 323.557 339.832 323.034 339.744C322.511 339.656 322.026 339.416 321.64 339.052C321.254 338.689 320.984 338.219 320.865 337.702C320.746 337.186 320.783 336.645 320.971 336.149C321.159 335.654 321.49 335.225 321.922 334.917C322.354 334.61 322.868 334.438 323.398 334.422C323.928 334.406 324.451 334.548 324.9 334.83C325.499 335.209 325.925 335.809 326.084 336.5C326.243 337.191 326.123 337.917 325.75 338.52V338.52Z" fill="#263238"/>
<path d="M348.76 371C348.479 371.446 348.072 371.8 347.591 372.015C347.109 372.23 346.575 372.298 346.055 372.21C345.535 372.122 345.052 371.882 344.669 371.52C344.285 371.158 344.017 370.691 343.899 370.177C343.78 369.663 343.817 369.125 344.003 368.632C344.19 368.139 344.519 367.712 344.948 367.405C345.377 367.099 345.887 366.926 346.414 366.909C346.942 366.892 347.462 367.032 347.91 367.31C348.209 367.496 348.468 367.739 348.673 368.025C348.877 368.311 349.023 368.635 349.102 368.978C349.181 369.321 349.192 369.676 349.133 370.023C349.074 370.37 348.947 370.702 348.76 371V371Z" fill="#263238"/>
<path d="M371.77 393C371.49 393.448 371.084 393.802 370.602 394.019C370.121 394.236 369.586 394.305 369.065 394.218C368.544 394.131 368.061 393.891 367.677 393.53C367.292 393.168 367.023 392.7 366.904 392.186C366.786 391.671 366.822 391.133 367.009 390.639C367.196 390.145 367.525 389.718 367.955 389.411C368.385 389.105 368.896 388.932 369.424 388.916C369.951 388.9 370.472 389.04 370.92 389.32C371.218 389.505 371.477 389.747 371.682 390.032C371.886 390.318 372.032 390.641 372.111 390.983C372.19 391.325 372.201 391.679 372.142 392.026C372.084 392.372 371.957 392.703 371.77 393Z" fill="#263238"/>
<path d="M369.51 391.56L345.79 413.65L346.49 369.58L323.48 383.81V337.1" stroke="#263238" stroke-miterlimit="10"/>
<path d="M155.42 214.28C155.42 214.28 149.05 223.68 147.56 224.65C146.07 225.62 125.96 221.8 116.09 216.65L111 210.27L103.32 207.57L98.91 216.33L105 220.33C105 220.33 108.9 224.82 113.27 223.57C113.27 223.57 128.99 233.83 140.27 236.45C151.55 239.07 154.16 236.04 157.45 233.36C160.74 230.68 169.45 217.97 169.45 217.97L155.42 214.28Z" fill="#B55B52"/>
<path d="M215.87 174.74C215.87 174.74 241.03 167.06 249.55 160.69C249.55 160.69 262.48 144.87 264.63 127.98L261.72 119.19L263.26 109.19L272.84 111.33C272.84 111.33 277.84 121.85 271.75 130.09C271.75 130.09 270.12 154.57 259.75 167.33C249.38 180.09 216.94 188.62 216.94 188.62L215.87 174.74Z" fill="#B55B52"/>
<path d="M224.89 267.19L222.83 193.19L239 185.46L228.61 166.92C228.61 166.92 216 170.62 205.08 170.62C190.57 170.62 175.97 181.62 168.08 184.74C160.19 187.86 151.43 214.69 151.43 214.69L169.67 224.46L173.09 214.4C173.09 214.4 178 251.58 178.02 267.89L224.89 267.19Z" fill="#00A868"/>
<path opacity="0.1" d="M224.89 267.19L222.83 193.19L239 185.46L228.61 166.92C228.61 166.92 216 170.62 205.08 170.62C190.57 170.62 175.97 181.62 168.08 184.74C160.19 187.86 151.43 214.69 151.43 214.69L169.67 224.46L173.09 214.4C173.09 214.4 178 251.58 178.02 267.89L224.89 267.19Z" fill="white"/>
<path d="M188 163.87C188 163.87 175.37 165.19 173.08 155.14C173.08 155.14 165.54 152.14 170.9 144.7C170.9 144.7 163.96 134.37 172.82 131.3C174.031 128.385 175.921 125.8 178.331 123.762C180.742 121.724 183.604 120.29 186.68 119.58C193.85 117.82 191.82 121.67 191.82 121.67C191.82 121.67 206.69 115.92 208.82 122.33C210.95 128.74 199.37 131.58 199.37 131.58L188 163.87Z" fill="#263238"/>
<path d="M195.86 162C195.897 162.601 195.971 163.198 196.08 163.79C196.59 166.79 198.65 171.57 203.65 173.15C203.65 173.15 204.34 178.49 196.08 177.57C187.82 176.65 183.89 175.18 183.89 175.18C185.155 168.72 185.074 162.067 183.65 155.64C183.65 155.64 178.99 156.42 176.36 153.76C173.73 151.1 174.68 144.37 182.91 148.18C182.91 148.18 184.69 138.37 178.91 135.42C178.91 135.42 190.23 137.06 199.28 131.55C199.28 131.55 207.09 141.55 206 151.1C204.91 160.65 195.86 162 195.86 162Z" fill="#B55B52"/>
<path d="M197.87 150.47C197.87 150.47 194.93 152.38 191.58 149.62" stroke="#263238" stroke-width="0.722314" stroke-linecap="round" stroke-linejoin="round"/>
<path d="M191 142.22C191.18 142.95 191.69 143.45 192.14 143.34C192.59 143.23 192.81 142.55 192.63 141.82C192.45 141.09 191.94 140.58 191.49 140.69C191.04 140.8 190.77 141.49 191 142.22Z" fill="#263238"/>
<path d="M198.85 139.29C199.03 140.03 199.54 140.53 199.99 140.42C200.44 140.31 200.66 139.62 200.48 138.89C200.3 138.16 199.79 137.66 199.34 137.77C198.89 137.88 198.67 138.56 198.85 139.29Z" fill="#263238"/>
<path d="M190.48 136.91C189.805 137.096 189.202 137.483 188.75 138.018C188.299 138.553 188.02 139.213 187.95 139.91" stroke="#263238" stroke-width="0.963085" stroke-linecap="round" stroke-linejoin="round"/>
<path d="M201.15 134.37C201.15 134.37 199.37 133.04 197.8 134.18" stroke="#263238" stroke-width="0.963085" stroke-linecap="round" stroke-linejoin="round"/>
<path d="M199.08 146.75L197.22 140.62L202.46 144.98C202.178 145.612 201.69 146.13 201.077 146.451C200.464 146.773 199.76 146.878 199.08 146.75V146.75Z" fill="#A02724"/>
<path opacity="0.19" d="M196.08 163.82C195.326 163.957 194.552 163.932 193.808 163.746C193.065 163.559 192.37 163.217 191.77 162.74C193.3 162.58 195.86 162.03 195.86 162.03C195.897 162.631 195.971 163.228 196.08 163.82Z" fill="black"/>
<path d="M200.52 177.71L200.47 187.29L195.77 187.72C195.77 187.72 192.18 184.2 191.95 182.36C191.72 180.52 197.12 175.69 200.52 177.71Z" fill="#263238"/>
<path d="M199.79 186.31C199.79 186.31 206.85 212.31 210.24 225.31L206.38 233L199.88 226.51L196.37 186.74L199.79 186.31Z" fill="#263238"/>
<path d="M232.08 422L217.76 424.25C217.76 424.25 213.35 369.54 212.22 349.02C212.03 345.47 211.67 341.69 211.22 337.85C209 319.43 204.46 299.74 204.46 299.74C204.46 299.74 202.98 332.59 198.88 357.74C194.78 382.89 177.43 419.74 177.43 419.74L163.81 413.47C174.45 383.03 176.89 345.12 177.81 330.94C178.73 316.76 177.69 258.44 177.69 258.44L224.59 256.39C229.12 278.47 235.01 328.94 235.66 346.39C236.31 363.84 232.08 422 232.08 422Z" fill="#263238"/>
<path d="M229.54 426.16L230.3 437.66L221.83 439.57L220.94 426.71L229.54 426.16Z" fill="#B55B52"/>
<path d="M234.36 420.12L216.23 423.63L217.12 429.26L234.02 426.19L234.36 420.12Z" fill="#00A868"/>
<path d="M174.5 421.31L169.5 431.97L161.45 428.86L166.82 417.75L174.5 421.31Z" fill="#B55B52"/>
<path d="M162 429L171.44 432.72C171.85 432.878 172.188 433.18 172.39 433.57C173.11 434.96 175.08 438.37 177.44 439.67C180.44 441.33 182.03 442.49 180.95 444.21C179.87 445.93 178.23 445.34 176.55 444.9C175.18 444.54 162.27 439.13 157.55 437.13C157.334 437.039 157.141 436.902 156.984 436.728C156.826 436.554 156.709 436.348 156.639 436.125C156.57 435.901 156.55 435.665 156.581 435.432C156.612 435.2 156.694 434.977 156.82 434.78L160.09 429.64C160.289 429.333 160.587 429.103 160.933 428.987C161.28 428.871 161.656 428.875 162 429V429Z" fill="#263238"/>
<path d="M221.65 439.13L231.65 437.13C232.078 437.048 232.522 437.122 232.9 437.34C234.26 438.11 237.75 439.93 240.44 439.76C243.85 439.54 245.82 439.66 245.84 441.69C245.86 443.72 244.16 444.11 242.5 444.64C241.16 445.07 227.37 447.47 222.28 448.35C222.049 448.391 221.813 448.381 221.586 448.32C221.36 448.26 221.15 448.15 220.971 448C220.791 447.849 220.647 447.661 220.549 447.448C220.45 447.236 220.399 447.004 220.4 446.77V440.67C220.408 440.311 220.536 439.965 220.762 439.686C220.988 439.408 221.3 439.212 221.65 439.13V439.13Z" fill="#263238"/>
<path d="M182.51 417.41L163.08 413.24L161.37 418.87L179 424.05L182.51 417.41Z" fill="#00A868"/>
<path opacity="0.61" d="M211.21 338C208.99 319.59 204.45 299.89 204.45 299.89L202.53 275.38C202.53 275.38 213.37 317.72 211.21 338Z" fill="black"/>
<path d="M184.39 172.26C187.949 174.702 191.904 176.509 196.08 177.6L193 186.67C193 186.67 185.47 183.21 181.65 180.08L184.39 172.26Z" fill="white"/>
<path d="M196.08 177.6L201.15 185.46C203.473 182.245 205.154 178.612 206.1 174.76L200.4 170.62C200.4 170.62 198 175.86 196.08 177.6Z" fill="white"/>
</svg>
